<svg id="visual" viewBox="0 0 900 600" width="900" height="600" xmlns="http://www.w3.org/2000/svg" xmlns:xlink="http://www.w3.org/1999/xlink" version="1.1"><rect x="0" y="0" width="900" height="600" fill="#001220"></rect><defs><linearGradient id="grad1_0" x1="33.3%" y1="100%" x2="100%" y2="0%"><stop offset="20%" stop-color="#fbae3c" stop-opacity="1"></stop><stop offset="80%" stop-color="#fbae3c" stop-opacity="1"></stop></linearGradient></defs><defs><linearGradient id="grad1_1" x1="33.3%" y1="100%" x2="100%" y2="0%"><stop offset="20%" stop-color="#fbae3c" stop-opacity="1"></stop><stop offset="80%" stop-color="#f48350" stop-opacity="1"></stop></linearGradient></defs><defs><linearGradient id="grad1_2" x1="33.3%" y1="100%" x2="100%" y2="0%"><stop offset="20%" stop-color="#d96162" stop-opacity="1"></stop><stop offset="80%" stop-color="#f48350" stop-opacity="1"></stop></linearGradient></defs><defs><linearGradient id="grad1_3" x1="33.3%" y1="100%" x2="100%" y2="0%"><stop offset="20%" stop-color="#d96162" stop-opacity="1"></stop><stop offset="80%" stop-color="#af4b6d" stop-opacity="1"></stop></linearGradient></defs><defs><linearGradient id="grad1_4" x1="33.3%" y1="100%" x2="100%" y2="0%"><stop offset="20%" stop-color="#7c3e6b" stop-opacity="1"></stop><stop offset="80%" stop-color="#af4b6d" stop-opacity="1"></stop></linearGradient></defs><defs><linearGradient id="grad1_5" x1="33.3%" y1="100%" x2="100%" y2="0%"><stop offset="20%" stop-color="#7c3e6b" stop-opacity="1"></stop><stop offset="80%" stop-color="#49335c" stop-opacity="1"></stop></linearGradient></defs><defs><linearGradient id="grad1_6" x1="33.3%" y1="100%" x2="100%" y2="0%"><stop offset="20%" stop-color="#1d2540" stop-opacity="1"></stop><stop offset="80%" stop-color="#49335c" stop-opacity="1"></stop></linearGradient></defs><defs><linearGradient id="grad1_7" x1="33.3%" y1="100%" x2="100%" y2="0%"><stop offset="20%" stop-color="#1d2540" stop-opacity="1"></stop><stop offset="80%" stop-color="#001220" stop-opacity="1"></stop></linearGradient></defs><defs><linearGradient id="grad2_0" x1="0%" y1="100%" x2="66.7%" y2="0%"><stop offset="20%" stop-color="#fbae3c" stop-opacity="1"></stop><stop offset="80%" stop-color="#fbae3c" stop-opacity="1"></stop></linearGradient></defs><defs><linearGradient id="grad2_1" x1="0%" y1="100%" x2="66.7%" y2="0%"><stop offset="20%" stop-color="#f48350" stop-opacity="1"></stop><stop offset="80%" stop-color="#fbae3c" stop-opacity="1"></stop></linearGradient></defs><defs><linearGradient id="grad2_2" x1="0%" y1="100%" x2="66.7%" y2="0%"><stop offset="20%" stop-color="#f48350" stop-opacity="1"></stop><stop offset="80%" stop-color="#d96162" stop-opacity="1"></stop></linearGradient></defs><defs><linearGradient id="grad2_3" x1="0%" y1="100%" x2="66.7%" y2="0%"><stop offset="20%" stop-color="#af4b6d" stop-opacity="1"></stop><stop offset="80%" stop-color="#d96162" stop-opacity="1"></stop></linearGradient></defs><defs><linearGradient id="grad2_4" x1="0%" y1="100%" x2="66.7%" y2="0%"><stop offset="20%" stop-color="#af4b6d" stop-opacity="1"></stop><stop offset="80%" stop-color="#7c3e6b" stop-opacity="1"></stop></linearGradient></defs><defs><linearGradient id="grad2_5" x1="0%" y1="100%" x2="66.7%" y2="0%"><stop offset="20%" stop-color="#49335c" stop-opacity="1"></stop><stop offset="80%" stop-color="#7c3e6b" stop-opacity="1"></stop></linearGradient></defs><defs><linearGradient id="grad2_6" x1="0%" y1="100%" x2="66.7%" y2="0%"><stop offset="20%" stop-color="#49335c" stop-opacity="1"></stop><stop offset="80%" stop-color="#1d2540" stop-opacity="1"></stop></linearGradient></defs><defs><linearGradient id="grad2_7" x1="0%" y1="100%" x2="66.7%" y2="0%"><stop offset="20%" stop-color="#001220" stop-opacity="1"></stop><stop offset="80%" stop-color="#1d2540" stop-opacity="1"></stop></linearGradient></defs><g transform="translate(900, 600)"><path d="M-459.7 0C-414.3 -43.3 -368.9 -86.5 -353.8 -146.6C-338.8 -206.6 -354 -283.4 -325.1 -325.1C-296.1 -366.7 -223 -373.3 -161.5 -389.9C-100 -406.5 -50 -433.1 0 -459.7L0 0Z" fill="#0c1c30"></path><path d="M-402.2 0C-362.5 -37.9 -322.8 -75.7 -309.6 -128.2C-296.4 -180.8 -309.7 -248 -284.4 -284.4C-259.1 -320.9 -195.2 -326.6 -141.3 -341.1C-87.5 -355.7 -43.7 -379 0 -402.2L0 0Z" fill="#312c4f"></path><path d="M-344.8 0C-310.7 -32.5 -276.7 -64.9 -265.4 -109.9C-254.1 -154.9 -265.5 -212.5 -243.8 -243.8C-222.1 -275.1 -167.3 -280 -121.1 -292.4C-75 -304.8 -37.5 -324.8 0 -344.8L0 0Z" fill="#623965"></path><path d="M-287.3 0C-258.9 -27 -230.6 -54.1 -221.2 -91.6C-211.7 -129.1 -221.2 -177.1 -203.2 -203.2C-185.1 -229.2 -139.4 -233.3 -100.9 -243.7C-62.5 -254 -31.2 -270.7 0 -287.3L0 0Z" fill="#96446e"></path><path d="M-229.9 0C-207.2 -21.6 -184.5 -43.3 -176.9 -73.3C-169.4 -103.3 -177 -141.7 -162.5 -162.5C-148.1 -183.4 -111.5 -186.6 -80.7 -194.9C-50 -203.2 -25 -216.5 0 -229.9L0 0Z" fill="#c55469"></path><path d="M-172.4 0C-155.4 -16.2 -138.3 -32.5 -132.7 -55C-127 -77.5 -132.7 -106.3 -121.9 -121.9C-111 -137.5 -83.6 -140 -60.6 -146.2C-37.5 -152.4 -18.7 -162.4 0 -172.4L0 0Z" fill="#e9705a"></path><path d="M-114.9 0C-103.6 -10.8 -92.2 -21.6 -88.5 -36.6C-84.7 -51.6 -88.5 -70.8 -81.3 -81.3C-74 -91.7 -55.8 -93.3 -40.4 -97.5C-25 -101.6 -12.5 -108.3 0 -114.9L0 0Z" fill="#fa9845"></path><path d="M-57.5 0C-51.8 -5.4 -46.1 -10.8 -44.2 -18.3C-42.3 -25.8 -44.2 -35.4 -40.6 -40.6C-37 -45.8 -27.9 -46.7 -20.2 -48.7C-12.5 -50.8 -6.2 -54.1 0 -57.5L0 0Z" fill="#fbae3c"></path></g><g transform="translate(0, 0)"><path d="M459.7 0C457.2 62.8 454.8 125.7 424.7 175.9C394.7 226.2 337.1 263.8 285 285C232.9 306.1 186.3 310.8 139.7 337.2C93.1 363.6 46.6 411.7 0 459.7L0 0Z" fill="#0c1c30"></path><path d="M402.2 0C400.1 55 397.9 110 371.6 153.9C345.3 197.9 294.9 230.8 249.3 249.3C203.8 267.9 163 272 122.2 295.1C81.5 318.1 40.7 360.2 0 402.2L0 0Z" fill="#312c4f"></path><path d="M344.8 0C342.9 47.1 341.1 94.3 318.5 131.9C296 169.6 252.8 197.8 213.7 213.7C174.6 229.6 139.7 233.1 104.8 252.9C69.8 272.7 34.9 308.7 0 344.8L0 0Z" fill="#623965"></path><path d="M287.3 0C285.8 39.3 284.2 78.6 265.4 110C246.7 141.4 210.7 164.9 178.1 178.1C145.5 191.3 116.4 194.3 87.3 210.8C58.2 227.2 29.1 257.3 0 287.3L0 0Z" fill="#96446e"></path><path d="M229.9 0C228.6 31.4 227.4 62.8 212.4 88C197.3 113.1 168.5 131.9 142.5 142.5C116.4 153.1 93.1 155.4 69.8 168.6C46.6 181.8 23.3 205.8 0 229.9L0 0Z" fill="#c55469"></path><path d="M172.4 0C171.5 23.6 170.5 47.1 159.3 66C148 84.8 126.4 98.9 106.9 106.9C87.3 114.8 69.8 116.6 52.4 126.5C34.9 136.3 17.5 154.4 0 172.4L0 0Z" fill="#e9705a"></path><path d="M114.9 0C114.3 15.7 113.7 31.4 106.2 44C98.7 56.5 84.3 65.9 71.2 71.2C58.2 76.5 46.6 77.7 34.9 84.3C23.3 90.9 11.6 102.9 0 114.9L0 0Z" fill="#fa9845"></path><path d="M57.5 0C57.2 7.9 56.8 15.7 53.1 22C49.3 28.3 42.1 33 35.6 35.6C29.1 38.3 23.3 38.9 17.5 42.2C11.6 45.4 5.8 51.5 0 57.5L0 0Z" fill="#fbae3c"></path></g></svg>